<?xml version="1.0" standalone="no"?>
<!DOCTYPE svg PUBLIC "-//W3C//DTD SVG 20010904//EN"
 "http://www.w3.org/TR/2001/REC-SVG-20010904/DTD/svg10.dtd">
<svg version="1.0" xmlns="http://www.w3.org/2000/svg"
 width="800.000000pt" height="460.000000pt" viewBox="0 0 800.000000 460.000000"
 preserveAspectRatio="xMidYMid meet">

<g transform="translate(0.000000,460.000000) scale(0.100000,-0.100000)"
fill="#31797C" stroke="none">
<path d="M1025 3320 l-990 -990 973 -972 972 -973 0 565 0 565 -407 407 -408
408 710 710 710 710 -280 280 c-154 154 -282 280 -285 280 -3 0 -451 -446
-995 -990z"/>
<path d="M5695 4020 l-280 -280 710 -710 710 -710 -70 -70 -69 -70 565 0 565
0 69 70 70 70 -990 990 c-545 545 -992 990 -995 990 -3 0 -131 -126 -285 -280z"/>
<path d="M3050 1117 l0 -75 273 -4 c251 -3 275 -5 306 -23 68 -40 97 -113 77
-191 -14 -51 -32 -76 -76 -103 -33 -20 -48 -21 -242 -21 l-208 0 0 -320 0
-320 75 0 75 0 0 239 0 238 143 5 c126 4 148 7 198 30 72 33 134 94 168 167
36 77 36 183 1 256 -34 70 -89 126 -157 161 l-58 29 -287 3 -288 3 0 -74z"/>
<path d="M4220 1116 l0 -76 65 0 65 0 0 -415 0 -415 -65 0 -65 0 0 -76 0 -75
263 3 262 3 61 32 c76 40 146 116 174 190 20 53 21 72 18 352 l-3 296 -29 58
c-36 71 -99 130 -174 165 -56 27 -60 27 -314 30 l-258 3 0 -75z m470 -87 c66
-15 107 -47 136 -105 l25 -52 -3 -263 -3 -264 -28 -41 c-45 -66 -93 -87 -214
-92 l-103 -5 0 417 0 416 73 0 c39 0 92 -5 117 -11z"/>
</g>
</svg>
