<?xml version="1.0" standalone="no"?>
<!DOCTYPE svg PUBLIC "-//W3C//DTD SVG 20010904//EN"
 "http://www.w3.org/TR/2001/REC-SVG-20010904/DTD/svg10.dtd">
<svg version="1.0" xmlns="http://www.w3.org/2000/svg"
 width="256.000000pt" height="256.000000pt" viewBox="0 0 256.000000 256.000000"
 preserveAspectRatio="xMidYMid meet">

<g transform="translate(0.000000,256.000000) scale(0.100000,-0.100000)"
fill="#fff" stroke="none">
<path d="M1183 2542 c-29 -10 -69 -30 -90 -45 -21 -14 -262 -250 -535 -524
-563 -564 -552 -550 -552 -693 0 -143 -13 -127 567 -707 583 -583 564 -568
712 -568 139 0 121 -15 711 577 496 498 523 526 544 583 29 78 25 187 -9 255
-16 31 -180 203 -539 563 -414 415 -528 523 -570 544 -71 35 -167 41 -239 15z
m198 -117 c50 -24 1026 -1010 1049 -1060 25 -51 25 -119 1 -170 -13 -27 -186
-207 -532 -552 -465 -462 -518 -513 -559 -523 -52 -14 -107 -7 -158 20 -48 24
-1024 1004 -1048 1050 -24 49 -23 134 4 185 12 23 180 199 401 420 l381 380
64 -64 64 -63 -20 -45 c-61 -138 13 -314 155 -368 l47 -18 0 -282 0 -282 -42
-12 c-58 -18 -149 -111 -167 -171 -53 -177 56 -345 237 -367 155 -18 302 117
302 277 0 108 -66 209 -164 251 l-56 24 0 281 0 280 49 21 49 20 82 -82 81
-82 -20 -61 c-12 -34 -21 -76 -21 -95 0 -95 67 -204 154 -250 54 -29 194 -31
243 -4 55 30 103 78 131 131 31 61 36 167 10 227 -24 55 -87 119 -143 145 -65
31 -161 32 -225 3 l-44 -20 -85 85 -84 84 23 53 c18 43 21 66 18 119 -6 79
-32 132 -90 187 -80 73 -205 93 -301 47 l-38 -18 -65 65 -65 65 88 85 c51 49
103 90 123 96 45 15 128 9 171 -12z m-21 -388 c117 -62 116 -232 -2 -293 -42
-22 -134 -15 -170 11 -68 50 -89 160 -45 226 26 39 97 79 143 79 17 0 50 -10
74 -23z m559 -557 c94 -48 115 -174 42 -254 -53 -58 -125 -71 -197 -35 -58 28
-88 78 -88 145 0 127 129 203 243 144z m-558 -555 c64 -34 98 -107 84 -182
-10 -56 -77 -119 -137 -128 -96 -14 -178 51 -186 150 -11 136 118 222 239 160z"/>
</g>
</svg>
