<?xml version="1.0" standalone="no"?>
<!DOCTYPE svg PUBLIC "-//W3C//DTD SVG 20010904//EN"
 "http://www.w3.org/TR/2001/REC-SVG-20010904/DTD/svg10.dtd">
<svg version="1.0" xmlns="http://www.w3.org/2000/svg"
 width="256.000000pt" height="256.000000pt" viewBox="0 0 256.000000 256.000000"
 preserveAspectRatio="xMidYMid meet">

<g transform="translate(0.000000,256.000000) scale(0.100000,-0.100000)"
fill="#fff" stroke="none">
<path d="M1070 2515 c-287 -48 -554 -198 -750 -420 -147 -167 -247 -371 -297
-605 -24 -116 -24 -362 0 -482 52 -261 170 -481 357 -669 107 -107 221 -187
364 -255 116 -55 167 -65 196 -39 18 16 20 31 20 142 0 121 -1 124 -21 118
-31 -10 -179 -7 -217 4 -53 16 -119 58 -146 94 -13 17 -39 64 -57 102 -24 52
-50 88 -106 141 -40 39 -73 76 -73 82 0 17 49 23 93 11 57 -15 107 -54 155
-119 54 -73 89 -106 134 -124 48 -20 156 -20 206 -1 34 14 40 22 51 64 7 26
23 64 37 84 l24 37 -22 4 c-198 37 -296 78 -384 159 -112 104 -165 245 -165
447 -1 137 20 216 81 308 l40 59 -12 82 c-12 83 -5 169 21 235 11 28 13 29 69
24 61 -6 163 -47 244 -99 l47 -31 78 19 c109 25 376 25 485 0 l77 -18 67 40
c87 52 165 82 231 89 50 4 53 3 64 -24 26 -66 33 -152 21 -237 -11 -77 -11
-84 8 -107 71 -88 103 -199 102 -345 -3 -333 -155 -520 -477 -586 -49 -10 -91
-19 -92 -19 -1 0 11 -21 27 -47 40 -67 50 -137 50 -368 0 -183 2 -203 18 -218
28 -26 66 -21 161 20 394 169 672 514 758 941 24 120 24 366 0 482 -50 234
-150 438 -297 605 -199 225 -467 374 -760 421 -104 17 -308 16 -410 -1z"/>
</g>
</svg>
